<svg xmlns="http://www.w3.org/2000/svg" width="1600" height="980" viewBox="0 0 1600 980">
  <defs>
    <linearGradient id="pageBg" x1="0" y1="0" x2="1" y2="1">
      <stop offset="0" stop-color="#eef3f7"/>
      <stop offset="1" stop-color="#dfe8ee"/>
    </linearGradient>
    <linearGradient id="side" x1="0" y1="0" x2="0" y2="1">
      <stop offset="0" stop-color="#17212b"/>
      <stop offset="1" stop-color="#22303d"/>
    </linearGradient>
    <linearGradient id="heat" x1="0" y1="0" x2="1" y2="1">
      <stop offset="0" stop-color="#f6f8fb"/>
      <stop offset="0.20" stop-color="#cde9e5"/>
      <stop offset="0.38" stop-color="#1fb6a6"/>
      <stop offset="0.55" stop-color="#f7c948"/>
      <stop offset="0.72" stop-color="#e84545"/>
      <stop offset="1" stop-color="#f6f8fb"/>
    </linearGradient>
    <filter id="shadow" x="-20%" y="-20%" width="140%" height="140%">
      <feDropShadow dx="0" dy="12" stdDeviation="12" flood-color="#123" flood-opacity="0.13"/>
    </filter>
    <style>
      .title { font-family: Segoe UI, Arial, sans-serif; font-size: 34px; font-weight: 700; fill: #14212d; }
      .subtitle { font-family: Segoe UI, Arial, sans-serif; font-size: 18px; fill: #526879; }
      .h { font-family: Segoe UI, Arial, sans-serif; font-size: 22px; font-weight: 700; fill: #14212d; }
      .sideTitle { font-family: Segoe UI, Arial, sans-serif; font-size: 28px; font-weight: 700; fill: #e9f1f7; }
      .sideText { font-family: Segoe UI, Arial, sans-serif; font-size: 15px; fill: #a9b7c6; }
      .text { font-family: Segoe UI, Arial, sans-serif; font-size: 16px; fill: #243746; }
      .small { font-family: Segoe UI, Arial, sans-serif; font-size: 13px; fill: #5d7182; }
      .white { font-family: Segoe UI, Arial, sans-serif; font-size: 15px; fill: #ffffff; }
      .window { fill: #e9edf2; stroke: #b7c5d0; stroke-width: 1.5; rx: 8; filter: url(#shadow); }
      .panel { fill: #ffffff; stroke: #c8d4dd; stroke-width: 1.2; rx: 8; }
      .button { fill: #1fb6a6; rx: 8; }
      .button2 { fill: #f7fafc; stroke: #c8d4dd; rx: 8; }
      .zone { fill: none; stroke: #ffd166; stroke-width: 4; stroke-dasharray: 10 7; }
      .cross { stroke: #17212b; stroke-width: 3; }
      .grid { stroke: #dbe4eb; stroke-width: 1; }
    </style>
  </defs>

  <rect width="1600" height="980" fill="url(#pageBg)"/>
  <text x="80" y="76" class="title">Рисунок 12 — Модуль визуализации B-scan</text>
  <text x="80" y="112" class="subtitle">Отображение радарограммы, зон интереса, таблицы результатов и A-scan выбранной трассы</text>

  <rect x="70" y="150" width="1460" height="760" class="window"/>

  <rect x="95" y="175" width="282" height="710" fill="url(#side)" rx="8"/>
  <text x="122" y="230" class="sideTitle">GPR аномалии</text>
  <text x="122" y="270" class="sideText">Поиск перспективных зон</text>
  <text x="122" y="294" class="sideText">на георадиолокационной</text>
  <text x="122" y="318" class="sideText">радарограмме</text>

  <rect x="122" y="365" width="218" height="44" class="button"/>
  <text x="168" y="393" class="white">Загрузить GPR / CSV</text>
  <rect x="122" y="423" width="218" height="44" class="button2"/>
  <text x="158" y="451" class="text">Создать демо-сигналы</text>
  <rect x="122" y="481" width="218" height="44" class="button2"/>
  <text x="164" y="509" class="text">Сбросить масштаб</text>

  <text x="122" y="570" class="white">Порог аномальности</text>
  <rect x="122" y="590" width="218" height="7" rx="4" fill="#344454"/>
  <circle cx="232" cy="594" r="12" fill="#1fb6a6"/>
  <text x="122" y="630" class="sideText">Текущее значение: 3.00</text>

  <rect x="122" y="675" width="18" height="18" rx="3" fill="#1fb6a6"/>
  <text x="152" y="690" class="sideText">Удаление фона</text>
  <rect x="122" y="710" width="18" height="18" rx="3" fill="#1fb6a6"/>
  <text x="152" y="725" class="sideText">Компенсация затухания</text>
  <rect x="122" y="745" width="18" height="18" rx="3" fill="#1fb6a6"/>
  <text x="152" y="760" class="sideText">Сглаживание шума</text>

  <rect x="122" y="810" width="218" height="48" rx="8" fill="#22303d"/>
  <text x="144" y="832" class="sideText">Трасс: 96, отсчетов: 240</text>
  <text x="144" y="852" class="sideText">зон интереса: 6</text>

  <text x="420" y="220" class="h">Радарограмма и найденные перспективные зоны</text>
  <rect x="420" y="245" width="705" height="550" class="panel"/>

  <clipPath id="radarClip">
    <rect x="438" y="265" width="669" height="510" rx="6"/>
  </clipPath>
  <g clip-path="url(#radarClip)">
    <rect x="438" y="265" width="669" height="510" fill="#f6f8fb"/>
    <g opacity="0.75">
      <path d="M438 304 C520 280 600 350 690 318 C790 282 870 338 950 310 C1020 286 1065 300 1107 280 L1107 265 L438 265 Z" fill="#bfe4df"/>
      <path d="M438 390 C525 360 635 430 735 385 C830 343 922 405 1008 368 C1050 350 1082 358 1107 345 L1107 265 L438 265 Z" fill="#92d6cc" opacity="0.8"/>
      <path d="M438 508 C520 468 605 548 705 500 C785 462 858 522 945 478 C1025 438 1070 462 1107 435 L1107 265 L438 265 Z" fill="#dfe8ee" opacity="0.85"/>
    </g>
    <g opacity="0.85">
      <rect x="438" y="265" width="669" height="510" fill="url(#heat)" opacity="0.35"/>
      <ellipse cx="585" cy="455" rx="62" ry="48" fill="#1fb6a6" opacity="0.78"/>
      <ellipse cx="742" cy="570" rx="70" ry="58" fill="#e84545" opacity="0.74"/>
      <ellipse cx="950" cy="640" rx="72" ry="52" fill="#1fb6a6" opacity="0.76"/>
      <ellipse cx="865" cy="365" rx="46" ry="34" fill="#f7c948" opacity="0.55"/>
    </g>
    <g opacity="0.18">
      <path d="M450 290 C520 330 600 270 680 320 S820 390 900 310 S1020 280 1095 340" fill="none" stroke="#17212b" stroke-width="2"/>
      <path d="M450 355 C520 395 610 335 690 382 S820 455 910 376 S1028 360 1095 420" fill="none" stroke="#17212b" stroke-width="2"/>
      <path d="M450 430 C520 470 620 410 705 460 S825 535 920 452 S1030 430 1095 500" fill="none" stroke="#17212b" stroke-width="2"/>
      <path d="M450 505 C525 545 620 490 710 535 S840 610 930 530 S1030 520 1095 585" fill="none" stroke="#17212b" stroke-width="2"/>
      <path d="M450 580 C535 620 630 565 720 610 S840 690 945 615 S1040 590 1095 670" fill="none" stroke="#17212b" stroke-width="2"/>
    </g>
    <g opacity="0.22">
      <line x1="520" y1="265" x2="520" y2="775" class="grid"/>
      <line x1="600" y1="265" x2="600" y2="775" class="grid"/>
      <line x1="680" y1="265" x2="680" y2="775" class="grid"/>
      <line x1="760" y1="265" x2="760" y2="775" class="grid"/>
      <line x1="840" y1="265" x2="840" y2="775" class="grid"/>
      <line x1="920" y1="265" x2="920" y2="775" class="grid"/>
      <line x1="1000" y1="265" x2="1000" y2="775" class="grid"/>
    </g>
  </g>

  <rect x="530" y="403" width="125" height="105" class="zone"/>
  <line x1="592" y1="445" x2="592" y2="475" class="cross"/>
  <line x1="577" y1="460" x2="607" y2="460" class="cross"/>
  <rect x="675" y="510" width="145" height="130" class="zone"/>
  <line x1="746" y1="562" x2="746" y2="592" class="cross"/>
  <line x1="731" y1="577" x2="761" y2="577" class="cross"/>
  <rect x="890" y="595" width="135" height="112" class="zone"/>
  <line x1="956" y1="638" x2="956" y2="668" class="cross"/>
  <line x1="941" y1="653" x2="971" y2="653" class="cross"/>

  <text x="445" y="292" class="small">ось X: трассы</text>
  <text x="445" y="315" class="small">ось Y: время / глубина</text>
  <text x="908" y="292" class="small">масштаб: 2.4x</text>

  <text x="1160" y="220" class="h">Список зон интереса</text>
  <rect x="1160" y="245" width="325" height="310" class="panel"/>
  <rect x="1160" y="245" width="325" height="42" rx="8" fill="#dce5ed"/>
  <text x="1178" y="272" class="small">Трасса</text>
  <text x="1240" y="272" class="small">Отсчет</text>
  <text x="1305" y="272" class="small">Score</text>
  <text x="1362" y="272" class="small">Увер.</text>
  <text x="1422" y="272" class="small">Тип</text>

  <rect x="1170" y="303" width="305" height="40" rx="5" fill="#1fb6a6" opacity="0.18"/>
  <text x="1183" y="328" class="text">60</text>
  <text x="1248" y="328" class="text">131</text>
  <text x="1307" y="328" class="text">10.91</text>
  <text x="1372" y="328" class="text">98%</text>
  <text x="1420" y="328" class="small">пустота</text>

  <text x="1183" y="382" class="text">75</text>
  <text x="1248" y="382" class="text">177</text>
  <text x="1307" y="382" class="text">7.16</text>
  <text x="1372" y="382" class="text">98%</text>
  <text x="1420" y="382" class="small">отраж.</text>

  <text x="1183" y="436" class="text">27</text>
  <text x="1248" y="436" class="text">87</text>
  <text x="1307" y="436" class="text">6.36</text>
  <text x="1372" y="436" class="text">98%</text>
  <text x="1420" y="436" class="small">отраж.</text>

  <line x1="1170" y1="355" x2="1475" y2="355" stroke="#e1e7ee"/>
  <line x1="1170" y1="409" x2="1475" y2="409" stroke="#e1e7ee"/>
  <line x1="1170" y1="463" x2="1475" y2="463" stroke="#e1e7ee"/>

  <text x="1160" y="607" class="h">A-scan выбранной трассы</text>
  <rect x="1160" y="632" width="325" height="190" class="panel"/>
  <line x1="1180" y1="727" x2="1468" y2="727" stroke="#95a3b1" stroke-width="2"/>
  <line x1="1180" y1="672" x2="1468" y2="672" stroke="#e1e7ee"/>
  <line x1="1180" y1="782" x2="1468" y2="782" stroke="#e1e7ee"/>
  <path d="M1180 725 C1198 680 1218 790 1238 728 C1260 650 1280 762 1304 710 C1322 680 1340 735 1360 690 C1385 632 1408 805 1434 730 C1448 690 1460 716 1468 707" fill="none" stroke="#159184" stroke-width="4"/>
  <line x1="1338" y1="640" x2="1338" y2="814" stroke="#e84545" stroke-width="3" stroke-dasharray="7 6"/>
  <text x="1182" y="658" class="small">Трасса 60</text>

  <rect x="420" y="825" width="705" height="52" rx="8" fill="#ffffff" stroke="#c8d4dd"/>
  <text x="445" y="857" class="text">Выделенные зоны используются как предварительные кандидаты для повторного профилирования и экспертной проверки</text>
</svg>
